<svg version="1.1" id="Layer_1" xmlns="http://www.w3.org/2000/svg" xmlns:xlink="http://www.w3.org/1999/xlink" x="0px" y="0px"
	 width="100%" viewBox="0 0 496 496" enable-background="new 0 0 496 496" xml:space="preserve">
<path fill="#000000" opacity="1.000000" stroke="none" 
	d="
M1.000000,478.000000 
	C1.000000,346.978577 1.000000,215.957138 1.171245,84.697395 
	C2.090719,86.112717 2.784591,87.752182 4.769236,85.482361 
	C8.087364,81.687462 12.387904,79.715233 17.284994,78.810303 
	C20.615261,78.194916 23.217274,76.265427 24.513721,73.203911 
	C29.528999,61.360531 39.471279,56.972881 51.193417,54.928169 
	C57.774212,53.780266 64.103600,51.919697 69.593140,47.709579 
	C73.691925,44.566086 78.383461,42.411289 83.248421,40.537434 
	C97.302574,35.124146 112.285210,34.980885 126.849854,32.476410 
	C136.630554,30.794561 145.387680,31.923161 151.979980,40.468472 
	C154.235413,43.392105 157.232590,45.735905 161.242126,45.736794 
	C168.319946,45.738361 175.080612,47.541630 181.903625,49.059555 
	C186.666702,50.119209 191.501526,50.378231 196.291565,49.378349 
	C203.985764,47.772255 211.740799,46.963768 219.596832,46.841389 
	C223.785675,46.776138 228.325912,46.507656 231.507538,43.776203 
	C237.461166,38.664948 244.563446,37.574726 251.796982,36.364326 
	C266.464813,33.909939 280.803711,32.819122 294.245667,41.544689 
	C302.407166,46.842541 311.215668,46.618019 319.857513,42.034168 
	C322.405914,40.682449 325.283508,39.757671 328.046143,40.172142 
	C337.780670,41.632572 346.823578,39.174343 355.843933,36.073067 
	C357.706299,35.432766 359.759460,35.094925 361.730988,35.067200 
	C371.771973,34.925987 381.576538,32.892334 391.480377,31.624702 
	C408.553406,29.439459 423.467987,34.986633 436.229401,45.902756 
	C449.379791,57.151691 462.108643,68.944984 470.604156,84.432442 
	C471.156647,85.439697 472.014130,86.284775 472.760345,87.179779 
	C476.354492,91.490601 480.761017,94.197861 486.569946,93.980095 
	C490.641235,93.827461 494.030029,95.345764 497.000000,98.000000 
	C497.000000,223.021439 497.000000,348.042877 496.652832,473.663879 
	C492.832825,476.047028 489.013184,476.518372 485.246796,477.204102 
	C469.100830,480.143646 454.699280,489.040680 438.257385,490.982178 
	C437.942993,491.019348 437.621246,491.207550 437.353760,491.397064 
	C432.453400,494.868195 426.734283,494.504639 421.139435,495.352386 
	C405.974304,497.650299 393.231110,490.714264 380.418854,485.000519 
	C367.134918,479.076355 353.812958,475.595642 339.323303,477.477600 
	C320.077026,479.977386 302.097534,487.678528 283.085327,491.257080 
	C275.432343,492.697571 267.909149,494.880829 260.071472,495.530121 
	C263.735779,496.344513 267.476532,495.716797 271.000000,497.000000 
	C198.645233,497.000000 126.290474,497.000000 53.626591,496.858948 
	C54.831352,494.042755 52.148529,494.585419 51.271790,494.436676 
	C45.958958,493.535614 41.187950,491.196533 36.327301,489.098602 
	C34.185692,488.174255 32.000160,487.083405 31.402332,484.545959 
	C30.751827,481.784943 28.680017,480.685974 26.468493,479.396057 
	C19.279842,475.203033 11.230205,477.093445 3.623613,475.929718 
	C2.339750,475.733276 1.817003,477.219757 1.000000,478.000000 
M332.752777,249.103317 
	C334.072845,249.695847 334.151581,250.955460 334.112427,252.078705 
	C333.394409,272.665771 336.233582,293.370911 332.139557,313.838928 
	C331.604919,316.511749 332.413116,317.620819 335.065430,317.616730 
	C343.560547,317.603607 352.055725,317.602875 360.550781,317.625519 
	C363.580475,317.633606 364.932709,316.477570 363.933990,313.301331 
	C362.307068,308.127472 362.573822,302.774536 362.572266,297.449310 
	C362.564453,270.797729 362.540619,244.146133 362.534607,217.494537 
	C362.533203,211.182281 361.915131,204.820724 363.624939,198.620071 
	C364.765259,194.484650 362.986908,193.224945 359.089508,193.318069 
	C353.096405,193.461243 347.071991,193.690018 341.108215,193.246063 
	C335.787354,192.849976 333.046692,194.799271 330.987091,199.747787 
	C323.567719,217.574265 315.723419,235.224487 307.956909,252.904938 
	C307.211334,254.602203 307.066193,256.914032 304.692688,257.525330 
	C302.884186,256.457306 302.560303,254.532379 301.842377,252.902649 
	C293.856049,234.773712 285.914093,216.625198 277.959198,198.482407 
	C276.804047,195.847824 275.725006,193.296738 272.059937,193.357666 
	C264.733002,193.479462 257.402405,193.359329 250.073730,193.407303 
	C246.733994,193.429153 245.108841,194.890823 246.009506,198.480743 
	C246.941589,202.195923 247.417099,205.960464 247.408203,209.832748 
	C247.338943,239.982208 247.373535,270.131897 247.353897,300.281525 
	C247.352386,302.609100 247.403229,304.970551 247.052063,307.258270 
	C245.459595,317.632629 245.410797,317.625885 256.204010,317.627930 
	C263.301117,317.629272 270.398193,317.628174 277.690125,317.628174 
	C273.746033,293.820984 276.466278,270.776001 275.571564,247.768402 
	C276.176880,247.669693 276.782196,247.570984 277.387512,247.472275 
	C286.283081,268.634430 295.178650,289.796570 304.032776,310.860168 
	C306.755951,310.078796 306.793610,308.325745 307.342133,307.040344 
	C311.262329,297.853424 314.943085,288.561798 318.991302,279.432678 
	C323.436737,269.407654 326.814880,258.918610 332.752777,249.103317 
M221.940414,280.543121 
	C229.124405,265.451904 235.290741,250.007477 237.147232,233.233017 
	C238.403488,221.882202 238.437439,210.570023 232.842514,200.097519 
	C231.029434,196.703812 228.912247,193.387375 224.308060,193.392563 
	C218.309982,193.399307 212.311829,193.379318 206.313843,193.402603 
	C202.469650,193.417511 201.088272,194.939560 202.888535,198.736984 
	C214.236893,222.674927 209.767822,245.692169 198.666412,268.269714 
	C197.826599,269.977722 197.093735,272.020050 194.481415,272.481323 
	C194.091278,271.840088 193.522949,271.215942 193.294617,270.485565 
	C186.939423,250.155060 179.904266,230.024979 174.917145,209.289932 
	C174.069885,205.767273 173.601883,202.037216 174.820511,198.422607 
	C176.029160,194.837585 174.487534,193.400101 171.040878,193.394379 
	C161.210739,193.378052 151.378952,193.279434 141.551163,193.430786 
	C137.501083,193.493149 136.657013,195.243698 138.779251,198.956589 
	C141.604156,203.898819 143.900757,209.052353 145.654800,214.450623 
	C150.230423,228.532852 154.879761,242.592529 159.293106,256.725708 
	C164.995438,274.986633 170.608841,293.277374 176.003006,311.630951 
	C177.279327,315.973633 179.186035,318.155151 183.980408,317.709900 
	C188.110275,317.326385 192.312881,317.458893 196.466415,317.680298 
	C199.910889,317.863892 201.949615,316.452881 203.696854,313.545715 
	C210.049774,302.975189 216.213089,292.308746 221.940414,280.543121 
M407.405548,175.106537 
	C402.031219,172.629440 396.345734,171.277496 390.469635,171.495239 
	C378.168671,171.951065 376.453430,173.865982 376.486053,186.028793 
	C376.490082,187.525467 376.524933,189.028885 376.670593,190.516937 
	C376.958893,193.461563 378.446228,194.753342 381.599182,194.838089 
	C393.889435,195.168488 397.991425,200.295059 395.914856,212.339539 
	C394.869324,218.403763 393.497528,224.489822 394.727661,230.650696 
	C397.126801,242.666702 405.802368,248.211700 416.641510,251.423843 
	C418.032532,251.836075 420.073364,251.301239 420.545624,253.744080 
	C417.865845,254.596664 415.327209,255.319702 412.847534,256.207458 
	C399.895599,260.844391 393.909637,269.402863 394.447815,283.123779 
	C394.642242,288.081055 395.939850,292.988922 396.245331,297.949402 
	C396.785736,306.724792 392.180817,311.376038 383.449738,311.343933 
	C382.284424,311.339630 381.109070,311.350739 379.956451,311.208435 
	C377.792389,310.941284 377.048248,312.132263 376.609253,313.998230 
	C372.972870,329.454041 377.197418,334.810333 392.957550,334.646027 
	C393.457275,334.640808 393.957367,334.645416 394.456635,334.627167 
	C410.095367,334.055695 423.495361,323.055359 426.286377,308.431946 
	C427.586761,301.618500 425.556976,295.236786 423.497772,288.889984 
	C421.596558,283.030182 419.413208,277.200806 420.021759,270.900391 
	C420.775146,263.100403 424.929565,257.345825 431.785553,253.492050 
	C420.869171,243.412369 418.889374,238.794144 420.400085,228.781494 
	C421.152740,223.793289 422.934540,219.137054 424.408478,214.380493 
	C429.911743,196.620789 424.598022,183.827255 407.405548,175.106537 
M81.239632,225.685730 
	C84.064934,237.325684 80.865410,246.639313 70.242287,252.921829 
	C82.799316,263.465759 84.688728,270.212402 79.707825,285.604584 
	C78.734978,288.610901 77.755730,291.619263 76.924644,294.666321 
	C75.739609,299.011108 74.837677,303.382904 75.741180,307.949158 
	C79.675781,327.834412 102.280128,340.160828 121.420540,332.848633 
	C123.192474,332.171692 125.152046,331.481201 125.290787,329.408142 
	C125.696922,323.340118 126.138374,317.234985 124.807465,311.016113 
	C122.669456,311.143707 121.037460,311.282043 119.402779,311.331879 
	C109.829056,311.623749 104.791519,306.244812 105.818085,296.711395 
	C106.137627,293.743927 106.716461,290.800537 107.260689,287.861694 
	C110.105728,272.498260 103.712059,261.430206 89.024422,256.135651 
	C86.626373,255.271225 83.890762,255.136642 81.450508,253.115082 
	C83.356758,251.279694 85.658195,251.340927 87.602890,250.720993 
	C101.730331,246.217438 108.239357,237.147400 107.581512,222.388962 
	C107.434242,219.085083 106.718491,215.806122 106.255653,212.516937 
	C106.093567,211.365021 105.826225,210.222626 105.741051,209.065994 
	C105.034256,199.467758 110.110176,194.277084 119.738991,194.815430 
	C122.078934,194.946243 124.631310,195.721634 125.115295,192.237732 
	C125.781952,187.439041 125.868652,182.615372 125.218491,177.810730 
	C124.857513,175.143158 122.871178,174.045731 120.522240,173.217392 
	C113.120392,170.607178 105.748207,171.179245 98.455421,173.440933 
	C80.307846,179.068985 71.954567,194.746796 77.306076,212.978043 
	C78.476418,216.965088 79.801987,220.906555 81.239632,225.685730 
z"/>
</svg>